# xmcd
#
# Track frame offsets:
#	150
#	12541
#	21155
#	35712
#	48061
#	61210
#	75203
#	96982
#	109245
#	123294
#	138171
#	154430
#	165674
#	177134
#	187919
#
# Disc length: 2695 seconds
# Revision: 0
# Processed by: cddbd v1.5.2PL0 Copyright (c) Steve Scherf et al.
# Submitted via: dBpowerAMP V12.0
#
DISCID=b90a850f
DTITLE=The Howie Brothers - Sentimental Favorites 2
DYEAR=2016
DGENRE=Country
TTITLE0=Sentimental Old You
TTITLE1=Have You Ever Been Lonely?
TTITLE2=Beautiful Brown Eyes
TTITLE3=Remember Me (I'm The One Who Loves You)
TTITLE4=Sweet Violets (Medley)
TTITLE5=Happy Anniversary
TTITLE6=She's Just An Old Love Turned Memory
TTITLE7=Harbour Lights
TTITLE8=Sweet Forget Me Not
TTITLE9=Kimberley Moon
TTITLE10=Dear Hearts And Gentle People
TTITLE11=Who Plays The Waltz Anymore?
TTITLE12=Silver Haired Daddy Of Mine
TTITLE13=It's A Sin To Tell A Lie
TTITLE14=Jean (Medley)
EXTD=
EXTT0=
EXTT1=
EXTT2=
EXTT3=
EXTT4=
EXTT5=
EXTT6=
EXTT7=
EXTT8=
EXTT9=
EXTT10=
EXTT11=
EXTT12=
EXTT13=
EXTT14=
PLAYORDER=
